<svg xmlns="http://www.w3.org/2000/svg" viewBox="0 0 1080 1080"><defs><style>.cls-1{fill:#fff7e5;}.cls-2{fill:#231f20;}</style></defs><g id="pandaFace"><path class="cls-1" d="M861.42,634.65C858,753.46,720.46,744,545.21,743.73c-179.2-.25-316-7.16-316-112,0-176,140.71-289,316-289S866.54,458.76,861.42,634.65Z"/></g><g id="pandaEars"><circle class="cls-2" cx="297.87" cy="415.42" r="79.42"/><circle class="cls-2" cx="777.12" cy="415.42" r="79.42"/><path class="cls-2" d="M454.54,550.58c-11.61,30.6-23.27,43.85-54.19,53.18-28.7,8.66-84.82,12.7-84.82-17.28s34-61.31,64-61.31S465.17,522.56,454.54,550.58Z"/><path class="cls-2" d="M616.61,550.58c11.61,30.6,23.26,43.85,54.19,53.18,28.69,8.66,84.82,12.7,84.82-17.28s-34-61.31-64-61.31S606,522.56,616.61,550.58Z"/><path class="cls-2" d="M574.21,645.17c0,12.66-12.89,30.84-28.8,30.84s-28.81-18.18-28.81-30.84,12.9-13.31,28.81-13.31S574.21,632.51,574.21,645.17Z"/></g></svg>